<svg width="40" height="40" viewBox="0 0 40 40" fill="none" xmlns="http://www.w3.org/2000/svg">
<circle cx="20" cy="20" r="20" fill="#DFE8EC"/>
<circle cx="20" cy="20" r="17" fill="#D1DDE3"/>
<path d="M14.5898 28V25.9062L20.1445 20.4609C20.6758 19.9245 21.1185 19.4479 21.4727 19.0312C21.8268 18.6146 22.0924 18.2109 22.2695 17.8203C22.4466 17.4297 22.5352 17.013 22.5352 16.5703C22.5352 16.0651 22.4206 15.6328 22.1914 15.2734C21.9622 14.9089 21.6471 14.6276 21.2461 14.4297C20.8451 14.2318 20.3893 14.1328 19.8789 14.1328C19.3529 14.1328 18.8919 14.2422 18.4961 14.4609C18.1003 14.6745 17.793 14.9792 17.5742 15.375C17.3607 15.7708 17.2539 16.2422 17.2539 16.7891H14.4961C14.4961 15.7734 14.7279 14.8906 15.1914 14.1406C15.6549 13.3906 16.293 12.8099 17.1055 12.3984C17.9232 11.987 18.8607 11.7812 19.918 11.7812C20.9909 11.7812 21.9336 11.9818 22.7461 12.3828C23.5586 12.7839 24.1888 13.3333 24.6367 14.0312C25.0898 14.7292 25.3164 15.526 25.3164 16.4219C25.3164 17.0208 25.2018 17.6094 24.9727 18.1875C24.7435 18.7656 24.3398 19.4062 23.7617 20.1094C23.1888 20.8125 22.3841 21.6641 21.3477 22.6641L18.5898 25.4687V25.5781H25.5586V28H14.5898Z" fill="white"/>
</svg>
