<svg width="132" height="130" viewBox="0 0 132 130" fill="none" xmlns="http://www.w3.org/2000/svg">
<path d="M126.558 65C126.558 97.8149 99.5238 124.558 66 124.558C32.4762 124.558 5.44212 97.8149 5.44212 65C5.44212 32.1851 32.4762 5.44212 66 5.44212C99.5238 5.44212 126.558 32.1851 126.558 65Z" fill="url(#paint0_linear_1962_4689)" stroke="url(#paint1_linear_1962_4689)" stroke-width="10.8842"/>
<path d="M65.6551 85.5391C62.8827 85.5391 60.4183 85.0642 58.2619 84.1144C56.1184 83.1645 54.4241 81.8425 53.1791 80.1482C51.9341 78.4539 51.273 76.4965 51.196 74.276H58.4352C58.4994 75.3413 58.8524 76.2719 59.4941 77.0677C60.1359 77.8507 60.9895 78.4603 62.0548 78.8968C63.1201 79.3332 64.3138 79.5514 65.6359 79.5514C67.0478 79.5514 68.2992 79.3075 69.3902 78.8197C70.4813 78.3192 71.3348 77.626 71.9509 76.7404C72.567 75.8548 72.8686 74.8343 72.8558 73.6791C72.8686 72.4855 72.5606 71.4329 71.9317 70.5216C71.3027 69.6103 70.3914 68.898 69.1977 68.3845C68.0169 67.8711 66.5921 67.6144 64.9235 67.6144H61.4387V62.108H64.9235C66.2969 62.108 67.497 61.8706 68.5239 61.3956C69.5635 60.9207 70.3786 60.2533 70.969 59.3933C71.5594 58.5205 71.8482 57.5129 71.8354 56.3706C71.8482 55.2539 71.5979 54.2848 71.0845 53.4633C70.5839 52.629 69.8716 51.9809 68.9474 51.5188C68.0361 51.0567 66.9644 50.8257 65.7321 50.8257C64.5256 50.8257 63.4089 51.0439 62.3821 51.4803C61.3553 51.9167 60.5274 52.5392 59.8984 53.3478C59.2695 54.1436 58.9358 55.0934 58.8973 56.1973H52.0239C52.0752 53.9896 52.7106 52.0514 53.93 50.3828C55.1622 48.7014 56.8051 47.3922 58.8588 46.4552C60.9124 45.5054 63.2164 45.0305 65.7707 45.0305C68.4019 45.0305 70.6866 45.5246 72.6248 46.513C74.5758 47.4885 76.0839 48.8041 77.1493 50.4599C78.2146 52.1156 78.7473 53.9447 78.7473 55.947C78.7601 58.1675 78.1055 60.0287 76.7835 61.5304C75.4742 63.0322 73.7543 64.0141 71.6236 64.4761V64.7842C74.3961 65.1693 76.5203 66.1961 77.9964 67.8647C79.4853 69.5205 80.2234 71.5806 80.2105 74.045C80.2105 76.2527 79.5816 78.2293 78.3237 79.9749C77.0787 81.7077 75.3587 83.0683 73.1639 84.0566C70.9818 85.0449 68.4789 85.5391 65.6551 85.5391Z" fill="#4C7DBE"/>
<defs>
<linearGradient id="paint0_linear_1962_4689" x1="84.9928" y1="130" x2="44.4774" y2="13.983" gradientUnits="userSpaceOnUse">
<stop stop-color="#B5D1F1"/>
<stop offset="1" stop-color="#DCECFD"/>
</linearGradient>
<linearGradient id="paint1_linear_1962_4689" x1="128.448" y1="130" x2="4.14451" y2="130.355" gradientUnits="userSpaceOnUse">
<stop stop-color="#B5D1F1"/>
<stop offset="1" stop-color="#DCECFD"/>
</linearGradient>
</defs>
</svg>
