<svg width="40" height="40" viewBox="0 0 40 40" fill="none" xmlns="http://www.w3.org/2000/svg">
<circle cx="20" cy="20" r="20" fill="#EED9CA"/>
<circle cx="20" cy="20" r="17" fill="#F0C3A2"/>
<path d="M19.999 28.2187C18.874 28.2187 17.874 28.026 16.999 27.6406C16.1292 27.2552 15.4417 26.7187 14.9365 26.0312C14.4313 25.3437 14.1631 24.5495 14.1318 23.6484H17.0693C17.0954 24.0807 17.2386 24.4583 17.499 24.7812C17.7594 25.099 18.1058 25.3464 18.5381 25.5234C18.9704 25.7005 19.4548 25.7891 19.9912 25.7891C20.5641 25.7891 21.0719 25.6901 21.5146 25.4922C21.9574 25.2891 22.3037 25.0078 22.5537 24.6484C22.8037 24.2891 22.9261 23.875 22.9209 23.4062C22.9261 22.9219 22.8011 22.4948 22.5459 22.125C22.2907 21.7552 21.9209 21.4661 21.4365 21.2578C20.9574 21.0495 20.3792 20.9453 19.7021 20.9453H18.2881V18.7109H19.7021C20.2594 18.7109 20.7464 18.6146 21.1631 18.4219C21.585 18.2292 21.9157 17.9583 22.1553 17.6094C22.3949 17.2552 22.512 16.8464 22.5068 16.3828C22.512 15.9297 22.4105 15.5365 22.2021 15.2031C21.999 14.8646 21.71 14.6016 21.335 14.4141C20.9652 14.2266 20.5303 14.1328 20.0303 14.1328C19.5407 14.1328 19.0876 14.2214 18.6709 14.3984C18.2542 14.5755 17.9183 14.8281 17.6631 15.1563C17.4079 15.4792 17.2725 15.8646 17.2568 16.3125H14.4678C14.4886 15.4167 14.7464 14.6302 15.2412 13.9531C15.7412 13.2708 16.4079 12.7396 17.2412 12.3594C18.0745 11.974 19.0094 11.7812 20.0459 11.7812C21.1136 11.7812 22.0407 11.9818 22.8271 12.3828C23.6188 12.7786 24.2308 13.3125 24.6631 13.9844C25.0954 14.6562 25.3115 15.3984 25.3115 16.2109C25.3167 17.112 25.0511 17.8672 24.5146 18.4766C23.9834 19.0859 23.2855 19.4844 22.4209 19.6719V19.7969C23.5459 19.9531 24.4079 20.3698 25.0068 21.0469C25.611 21.7187 25.9105 22.5547 25.9053 23.5547C25.9053 24.4505 25.6501 25.2526 25.1396 25.9609C24.6344 26.6641 23.9365 27.2161 23.0459 27.6172C22.1605 28.0182 21.1449 28.2187 19.999 28.2187Z" fill="white"/>
</svg>
