<svg width="20" height="20" viewBox="0 0 20 20" fill="none" xmlns="http://www.w3.org/2000/svg">
<circle cx="10" cy="10" r="9.25" fill="#D1DDE3" stroke="#DFE8EC" stroke-width="1.5"/>
<path d="M7.29508 14V12.9531L10.0724 10.2305C10.3381 9.96224 10.5594 9.72396 10.7365 9.51562C10.9136 9.30729 11.0464 9.10547 11.1349 8.91016C11.2235 8.71484 11.2677 8.50651 11.2677 8.28516C11.2677 8.03255 11.2104 7.81641 11.0959 7.63672C10.9813 7.45443 10.8237 7.3138 10.6232 7.21484C10.4227 7.11589 10.1948 7.06641 9.93962 7.06641C9.6766 7.06641 9.44613 7.12109 9.24821 7.23047C9.05029 7.33724 8.89665 7.48958 8.78727 7.6875C8.6805 7.88542 8.62712 8.12109 8.62712 8.39453H7.24821C7.24821 7.88672 7.36409 7.44531 7.59587 7.07031C7.82764 6.69531 8.14665 6.40495 8.5529 6.19922C8.96175 5.99349 9.4305 5.89062 9.95915 5.89062C10.4956 5.89062 10.967 5.99089 11.3732 6.19141C11.7795 6.39193 12.0946 6.66667 12.3185 7.01562C12.5451 7.36458 12.6584 7.76302 12.6584 8.21094C12.6584 8.51042 12.6011 8.80469 12.4865 9.09375C12.3719 9.38281 12.1701 9.70312 11.881 10.0547C11.5946 10.4062 11.1922 10.832 10.674 11.332L9.29508 12.7344V12.7891H12.7795V14H7.29508Z" fill="white"/>
</svg>
