<svg width="132" height="130" viewBox="0 0 132 130" fill="none" xmlns="http://www.w3.org/2000/svg">
<path d="M126.558 65C126.558 97.8149 99.5238 124.558 66 124.558C32.4762 124.558 5.44212 97.8149 5.44212 65C5.44212 32.1851 32.4762 5.44212 66 5.44212C99.5238 5.44212 126.558 32.1851 126.558 65Z" fill="url(#paint0_linear_1962_4688)" stroke="url(#paint1_linear_1962_4688)" stroke-width="10.8842"/>
<path d="M51.5041 85V79.8402L65.1931 66.4207C66.5023 65.0987 67.5933 63.9242 68.4661 62.8974C69.3389 61.8706 69.9935 60.8758 70.4299 59.9131C70.8663 58.9505 71.0845 57.9237 71.0845 56.8326C71.0845 55.5876 70.8021 54.5223 70.2374 53.6366C69.6726 52.7381 68.8961 52.045 67.9078 51.5573C66.9194 51.0695 65.7963 50.8257 64.5385 50.8257C63.2421 50.8257 62.1061 51.0952 61.1306 51.6343C60.1552 52.1605 59.3979 52.9114 58.8588 53.8869C58.3325 54.8624 58.0694 56.024 58.0694 57.3717H51.273C51.273 54.8688 51.8442 52.6932 52.9866 50.8449C54.1289 48.9966 55.7013 47.5655 57.7036 46.5515C59.7187 45.5375 62.0291 45.0305 64.6347 45.0305C67.2788 45.0305 69.602 45.5246 71.6044 46.513C73.6067 47.5013 75.1598 48.8554 76.2636 50.5754C77.3803 52.2953 77.9386 54.2591 77.9386 56.4668C77.9386 57.9429 77.6563 59.3933 77.0915 60.818C76.5267 62.2428 75.532 63.8215 74.1073 65.5543C72.6954 67.2871 70.7123 69.3857 68.158 71.8501L61.3617 78.762V79.0315H78.5355V85H51.5041Z" fill="#825C24"/>
<defs>
<linearGradient id="paint0_linear_1962_4688" x1="84.9928" y1="130" x2="44.4774" y2="13.983" gradientUnits="userSpaceOnUse">
<stop stop-color="#CB744A"/>
<stop offset="1" stop-color="#FAA66C"/>
</linearGradient>
<linearGradient id="paint1_linear_1962_4688" x1="128.448" y1="130" x2="4.14451" y2="130.355" gradientUnits="userSpaceOnUse">
<stop stop-color="#CB744A"/>
<stop offset="1" stop-color="#FAA66C"/>
</linearGradient>
</defs>
</svg>
