<svg width="20" height="20" viewBox="0 0 20 20" fill="none" xmlns="http://www.w3.org/2000/svg">
<circle cx="10" cy="10" r="9.25" fill="#F0C3A2" stroke="#EED9CA" stroke-width="1.5"/>
<path d="M9.99962 14.1094C9.43712 14.1094 8.93712 14.013 8.49962 13.8203C8.06472 13.6276 7.72097 13.3594 7.46837 13.0156C7.21577 12.6719 7.08165 12.2747 7.06603 11.8242H8.53478C8.5478 12.0404 8.61941 12.2292 8.74962 12.3906C8.87983 12.5495 9.05301 12.6732 9.26915 12.7617C9.4853 12.8503 9.72749 12.8945 9.99571 12.8945C10.2822 12.8945 10.5361 12.8451 10.7574 12.7461C10.9788 12.6445 11.152 12.5039 11.277 12.3242C11.402 12.1445 11.4632 11.9375 11.4606 11.7031C11.4632 11.4609 11.4007 11.2474 11.2731 11.0625C11.1455 10.8776 10.9606 10.7331 10.7184 10.6289C10.4788 10.5247 10.1897 10.4727 9.85118 10.4727H9.14415V9.35547H9.85118C10.1298 9.35547 10.3733 9.30729 10.5817 9.21094C10.7926 9.11458 10.958 8.97917 11.0777 8.80469C11.1975 8.6276 11.2561 8.42318 11.2535 8.19141C11.2561 7.96484 11.2053 7.76823 11.1012 7.60156C10.9996 7.43229 10.8551 7.30078 10.6676 7.20703C10.4827 7.11328 10.2652 7.06641 10.0152 7.06641C9.77045 7.06641 9.54389 7.11068 9.33556 7.19922C9.12722 7.28776 8.95926 7.41406 8.83165 7.57813C8.70405 7.73958 8.63634 7.93229 8.62853 8.15625H7.234C7.24441 7.70833 7.37332 7.3151 7.62071 6.97656C7.87071 6.63542 8.20405 6.36979 8.62071 6.17969C9.03738 5.98698 9.50483 5.89062 10.0231 5.89062C10.5569 5.89062 11.0205 5.99089 11.4137 6.19141C11.8095 6.38932 12.1155 6.65625 12.3317 6.99219C12.5478 7.32812 12.6559 7.69922 12.6559 8.10547C12.6585 8.55599 12.5257 8.93359 12.2574 9.23828C11.9918 9.54297 11.6428 9.74219 11.2106 9.83594V9.89844C11.7731 9.97656 12.204 10.1849 12.5035 10.5234C12.8056 10.8594 12.9553 11.2773 12.9527 11.7773C12.9527 12.2253 12.8251 12.6263 12.5699 12.9805C12.3173 13.332 11.9684 13.6081 11.5231 13.8086C11.0803 14.0091 10.5725 14.1094 9.99962 14.1094Z" fill="white"/>
</svg>
