<svg width="21" height="21" viewBox="0 0 21 21" fill="none" xmlns="http://www.w3.org/2000/svg">
<path d="M0.801758 19.43V1.57C0.801758 1.2552 1.05696 1 1.37176 1H19.2318C19.5466 1 19.8018 1.2552 19.8018 1.57V19.43C19.8018 19.7448 19.5466 20 19.2318 20H1.37176C1.05696 20 0.801758 19.7448 0.801758 19.43Z" stroke="black" stroke-linecap="round" stroke-linejoin="round"/>
<path fill-rule="evenodd" clip-rule="evenodd" d="M4.60181 4.30005C4.32566 4.30005 4.10181 4.52391 4.10181 4.80005C4.10181 5.07619 4.32566 5.30005 4.60181 5.30005H16.0018C16.2779 5.30005 16.5018 5.07619 16.5018 4.80005C16.5018 4.52391 16.2779 4.30005 16.0018 4.30005H4.60181ZM4.60181 8.1001C4.32566 8.1001 4.10181 8.32396 4.10181 8.6001C4.10181 8.87624 4.32566 9.1001 4.60181 9.1001H16.0018C16.2779 9.1001 16.5018 8.87624 16.5018 8.6001C16.5018 8.32396 16.2779 8.1001 16.0018 8.1001H4.60181ZM10.7517 12.3999C10.7517 12.1238 10.9756 11.8999 11.2517 11.8999H16.0017C16.2779 11.8999 16.5017 12.1238 16.5017 12.3999C16.5017 12.676 16.2779 12.8999 16.0017 12.8999H11.2517C10.9756 12.8999 10.7517 12.676 10.7517 12.3999ZM11.2517 15.7C10.9756 15.7 10.7517 15.9238 10.7517 16.2C10.7517 16.4761 10.9756 16.7 11.2517 16.7H16.0017C16.2779 16.7 16.5017 16.4761 16.5017 16.2C16.5017 15.9238 16.2779 15.7 16.0017 15.7H11.2517Z" fill="black"/>
<path d="M4.60181 16.1999V12.3999H7.45181V16.1999H4.60181Z" stroke="black" stroke-linecap="round" stroke-linejoin="round"/>
</svg>
