<svg width="66" height="66" viewBox="0 0 66 66" fill="none" xmlns="http://www.w3.org/2000/svg">
<g filter="url(#filter0_d_562_2553)">
<path d="M33 4C19.1929 4 8 15.1929 8 29C8 42.807 19.1929 54 33 54C46.807 54 58 42.807 58 29C58 15.1929 46.807 4 33 4Z" fill="#FFF49B" stroke="black" stroke-width="1.5" stroke-linecap="round" stroke-linejoin="round"/>
<path d="M22.9998 51.9198V34L32.9998 16.5L42.9998 34V51.9198" fill="#FFF49B"/>
<path d="M22.9998 51.9198V34L32.9998 16.5L42.9998 34V51.9198" stroke="black" stroke-width="1.5" stroke-linecap="round" stroke-linejoin="round"/>
<path d="M22.9998 34C22.9998 34 25.8167 36.5 27.9998 36.5C30.1828 36.5 32.9998 34 32.9998 34C32.9998 34 35.8168 36.5 37.9998 36.5C40.1828 36.5 42.9998 34 42.9998 34" fill="#FFF49B"/>
<path d="M22.9998 34C22.9998 34 25.8167 36.5 27.9998 36.5C30.1828 36.5 32.9998 34 32.9998 34C32.9998 34 35.8168 36.5 37.9998 36.5C40.1828 36.5 42.9998 34 42.9998 34" stroke="black" stroke-width="1.5" stroke-linecap="round" stroke-linejoin="round"/>
</g>
<defs>
<filter id="filter0_d_562_2553" x="0.25" y="0.25" width="65.5" height="65.5" filterUnits="userSpaceOnUse" color-interpolation-filters="sRGB">
<feFlood flood-opacity="0" result="BackgroundImageFix"/>
<feColorMatrix in="SourceAlpha" type="matrix" values="0 0 0 0 0 0 0 0 0 0 0 0 0 0 0 0 0 0 127 0" result="hardAlpha"/>
<feOffset dy="4"/>
<feGaussianBlur stdDeviation="3.5"/>
<feComposite in2="hardAlpha" operator="out"/>
<feColorMatrix type="matrix" values="0 0 0 0 0 0 0 0 0 0 0 0 0 0 0 0 0 0 0.15 0"/>
<feBlend mode="normal" in2="BackgroundImageFix" result="effect1_dropShadow_562_2553"/>
<feBlend mode="normal" in="SourceGraphic" in2="effect1_dropShadow_562_2553" result="shape"/>
</filter>
</defs>
</svg>
