<svg width="22" height="21" viewBox="0 0 22 21" fill="none" xmlns="http://www.w3.org/2000/svg">
<path d="M7.60064 20.0568H5.40043C2.97014 20.0568 1 18.0867 1 15.6564V8.7341C1 7.19535 1.80375 5.76838 3.11967 4.97085L8.62021 1.63719C10.0221 0.787602 11.7798 0.787602 13.1817 1.63719L18.6822 4.97085C19.9982 5.76838 20.8019 7.19535 20.8019 8.7341V15.6564C20.8019 18.0867 18.8317 20.0568 16.4015 20.0568H14.2013M7.60064 20.0568V15.6564C7.60064 13.8336 9.07819 12.3561 10.901 12.3561C12.7237 12.3561 14.2013 13.8336 14.2013 15.6564V20.0568M7.60064 20.0568H14.2013" stroke="black" stroke-linecap="round" stroke-linejoin="round"/>
</svg>
