<svg width="21" height="21" viewBox="0 0 21 21" fill="none" xmlns="http://www.w3.org/2000/svg">
<path d="M0.801758 14.7222V6.27778C0.801758 3.36295 3.1647 1 6.07954 1H14.524C17.4388 1 19.8018 3.36295 19.8018 6.27778V14.7222C19.8018 17.637 17.4388 20 14.524 20H6.07954C3.1647 20 0.801758 17.637 0.801758 14.7222Z" stroke="black"/>
<path d="M15.0518 13.1389C15.0518 13.1389 13.4684 15.25 10.3018 15.25C7.13509 15.25 5.55176 13.1389 5.55176 13.1389" stroke="black" stroke-linecap="round" stroke-linejoin="round"/>
<path d="M6.60749 8.38905C6.31601 8.38905 6.07971 8.15276 6.07971 7.86127C6.07971 7.56979 6.31601 7.3335 6.60749 7.3335C6.89897 7.3335 7.13527 7.56979 7.13527 7.86127C7.13527 8.15276 6.89897 8.38905 6.60749 8.38905Z" fill="black" stroke="black" stroke-linecap="round" stroke-linejoin="round"/>
<path d="M13.9962 8.38905C13.7047 8.38905 13.4684 8.15276 13.4684 7.86127C13.4684 7.56979 13.7047 7.3335 13.9962 7.3335C14.2876 7.3335 14.5239 7.56979 14.5239 7.86127C14.5239 8.15276 14.2876 8.38905 13.9962 8.38905Z" fill="black" stroke="black" stroke-linecap="round" stroke-linejoin="round"/>
</svg>
