<svg width="20" height="20" viewBox="0 0 20 20" fill="none" xmlns="http://www.w3.org/2000/svg">
<g clip-path="url(#clip0_869_3782)">
<path d="M14.7267 7.21875L7.05876 15.5859H4.24626C4.05095 15.5859 3.8947 15.3906 3.93376 15.1953L5.80876 3.32031C5.84782 3.04688 6.0822 2.85156 6.35564 2.85156H11.1213C14.4025 2.96875 15.3009 4.64844 14.715 7.22656L14.7267 7.21875Z" fill="#002C8A"/>
<path d="M14.8517 6.44531C16.0236 7.07031 16.297 8.24219 15.9064 9.80469C15.3986 12.1094 13.8752 13.0859 11.6486 13.125L11.0236 13.1641C10.7892 13.1641 10.633 13.3203 10.5939 13.5547L10.0861 16.6406C10.047 16.9141 9.81267 17.1094 9.53923 17.1094H7.19548C7.00017 17.1094 6.84392 16.9141 6.88298 16.7188L7.74235 11.1328C7.78142 10.9375 14.8517 6.44531 14.8517 6.44531Z" fill="#009BE1"/>
<path d="M7.69531 11.4062L8.47656 6.44531C8.50219 6.32782 8.56583 6.22206 8.65763 6.14438C8.74942 6.0667 8.86426 6.02145 8.98438 6.01562H12.7344C13.6328 6.01562 14.2969 6.17188 14.8438 6.44531C14.6484 8.16406 13.8281 10.9375 9.84375 11.0156H8.125C7.92969 11.0156 7.73438 11.1719 7.69531 11.4062Z" fill="#001F6B"/>
</g>
<defs>
<clipPath id="clip0_869_3782">
<rect width="20" height="20" fill="white"/>
</clipPath>
</defs>
</svg>
