<svg width="32" height="32" viewBox="0 0 32 32" fill="none" xmlns="http://www.w3.org/2000/svg">
<path d="M27.9091 13.4545C27.9091 22.3636 16.4545 30 16.4545 30C16.4545 30 5 22.3636 5 13.4545C5 10.4166 6.20681 7.5031 8.35496 5.35496C10.5031 3.20681 13.4166 2 16.4545 2C19.4925 2 22.406 3.20681 24.5541 5.35496C26.7023 7.5031 27.9091 10.4166 27.9091 13.4545Z" fill="white" stroke="black" stroke-width="2" stroke-linecap="round" stroke-linejoin="round"/>
<path d="M16.4545 17.2726C18.5633 17.2726 20.2727 15.5631 20.2727 13.4544C20.2727 11.3457 18.5633 9.63623 16.4545 9.63623C14.3458 9.63623 12.6364 11.3457 12.6364 13.4544C12.6364 15.5631 14.3458 17.2726 16.4545 17.2726Z" fill="white" stroke="black" stroke-width="2" stroke-linecap="round" stroke-linejoin="round"/>
</svg>
