<svg width="30" height="30" viewBox="0 0 30 30" fill="none" xmlns="http://www.w3.org/2000/svg">
<path fill-rule="evenodd" clip-rule="evenodd" d="M15.8951 6.27015C18.0053 4.15995 21.4946 4.15995 23.6048 6.27015C25.715 8.38034 25.715 11.8697 23.6048 13.9799L19.7537 17.8309C17.9208 19.8157 14.9381 19.92 12.8832 18.5501C12.1652 18.0714 11.9712 17.1013 12.4498 16.3833C12.9285 15.6653 13.8986 15.4712 14.6166 15.9499C15.5515 16.5732 16.7993 16.4354 17.4688 15.6989C17.4854 15.6806 17.5025 15.6627 17.5201 15.6451L21.3951 11.7701C22.2849 10.8803 22.2849 9.36966 21.3951 8.47985C20.5371 7.6219 19.102 7.59119 18.2027 8.38771L18.05 8.61672C17.5713 9.33473 16.6012 9.52875 15.8832 9.05008C15.1652 8.5714 14.9712 7.6013 15.4498 6.88328L15.6998 6.50828C15.7569 6.42267 15.8223 6.3429 15.8951 6.27015Z" fill="black"/>
<path fill-rule="evenodd" clip-rule="evenodd" d="M10.1989 12.0939C12.0392 10.4209 14.8714 9.98168 17.0625 11.625C17.7529 12.1428 17.8928 13.1222 17.375 13.8125C16.8572 14.5029 15.8779 14.6428 15.1875 14.125C14.3884 13.5257 13.239 13.5778 12.3342 14.3765L8.49725 18.3372L8.47985 18.3549C7.59005 19.2447 7.59005 20.7554 8.47985 21.6452C9.36966 22.535 10.8803 22.535 11.7701 21.6452L12.875 22.75L11.7701 21.6452L12.1451 21.2702C12.7553 20.66 13.7447 20.66 14.3549 21.2702C14.965 21.8804 14.965 22.8697 14.3549 23.4799L13.9799 23.8549C11.8697 25.9651 8.38034 25.9651 6.27015 23.8549C4.16312 21.7479 4.15996 18.2659 6.26064 16.1547L10.1277 12.1628C10.1507 12.1391 10.1745 12.1161 10.1989 12.0939Z" fill="black"/>
</svg>
