<svg width="346" height="346" viewBox="0 0 346 346" fill="none" xmlns="http://www.w3.org/2000/svg">
<rect width="346" height="346" rx="10" fill="#F4F4F4"/>
<path d="M228.417 186.799H219.808L224.425 145.259C224.533 144.639 224.601 144.014 224.635 143.371L224.709 142.689H224.652C224.652 142.689 224.652 142.632 224.652 142.609C224.652 133.994 217.678 127.006 209.069 127.006C202.942 127.006 197.643 130.548 195.099 135.695C192.555 130.548 187.257 127.006 181.129 127.006C175.002 127.006 169.317 130.816 166.892 136.269C164.479 130.81 159.015 127 152.666 127C146.318 127 141.4 130.44 138.816 135.461C136.226 130.44 130.996 127 124.959 127C116.356 127 109.376 133.983 109.376 142.604C109.376 142.632 109.376 142.66 109.376 142.683H109.365L101 218H228.417C237.021 218 244 211.017 244 202.396C244 193.776 237.026 186.793 228.417 186.793V186.799Z" fill="#DDDDDD"/>
<path d="M135.131 187.191C135.131 187.191 145.245 198.326 164.809 194.499C184.259 190.694 198.03 172.68 198.03 172.68" stroke="#B1B1B1" stroke-width="7" stroke-miterlimit="10"/>
<path d="M134.063 150.224C131.917 149.979 129.73 152.743 128.327 156.974L133.921 159.112L127.078 164.594C125.71 172.816 128.373 176.99 131.048 176.962C134.608 176.927 137.238 171.599 138.072 164.213C138.907 156.826 137.113 150.565 134.069 150.218L134.063 150.224Z" fill="#B1B1B1"/>
<path d="M160.083 150.224C157.84 149.979 155.545 152.743 154.075 156.974L159.929 159.112L152.763 164.594C151.332 172.816 154.12 176.99 156.92 176.962C160.645 176.927 163.405 171.599 164.274 164.213C165.148 156.826 163.269 150.565 160.077 150.218L160.083 150.224Z" fill="#B1B1B1"/>
</svg>
