<svg width="32" height="32" viewBox="0 0 32 32" fill="none" xmlns="http://www.w3.org/2000/svg">
<path d="M27.9091 13.4545C27.9091 22.3636 16.4545 30 16.4545 30C16.4545 30 5 22.3636 5 13.4545C5 10.4166 6.20681 7.5031 8.35496 5.35496C10.5031 3.20681 13.4166 2 16.4545 2C19.4925 2 22.406 3.20681 24.5541 5.35496C26.7023 7.5031 27.9091 10.4166 27.9091 13.4545Z" fill="white" stroke="#31302A" stroke-width="2" stroke-linecap="round" stroke-linejoin="round"/>
<path d="M16.4544 17.2727C18.5631 17.2727 20.2726 15.5633 20.2726 13.4545C20.2726 11.3458 18.5631 9.63635 16.4544 9.63635C14.3457 9.63635 12.6362 11.3458 12.6362 13.4545C12.6362 15.5633 14.3457 17.2727 16.4544 17.2727Z" fill="white" stroke="#31302A" stroke-width="2" stroke-linecap="round" stroke-linejoin="round"/>
</svg>
