<svg width="133" height="28" viewBox="0 0 133 28" fill="none" xmlns="http://www.w3.org/2000/svg">
<path d="M0.614492 27V0.399998H6.92249V11.743L15.9475 0.399998H23.8135L13.9715 12.617L25.0865 27H16.9735L9.81049 17.386L6.92249 20.673V27H0.614492ZM39.7316 27.57C37.2363 27.57 35.14 27.076 33.4426 26.088C31.758 25.1 30.485 23.7447 29.6236 22.022C28.7623 20.2867 28.3316 18.298 28.3316 16.056V0.399998H34.6396V16.284C34.6396 18.0953 35.0893 19.4443 35.9886 20.331C36.888 21.205 38.1356 21.642 39.7316 21.642C41.315 21.642 42.55 21.205 43.4366 20.331C44.336 19.4443 44.7856 18.0953 44.7856 16.284V0.399998H51.1126V16.056C51.1126 18.2853 50.682 20.2677 49.8206 22.003C48.9593 23.7257 47.68 25.0873 45.9826 26.088C44.298 27.076 42.2143 27.57 39.7316 27.57ZM57.2434 27V0.399998H66.3634C69.1247 0.399998 71.5441 0.963665 73.6214 2.091C75.7114 3.21833 77.3391 4.78267 78.5044 6.784C79.6697 8.77267 80.2524 11.078 80.2524 13.7C80.2524 15.676 79.9167 17.481 79.2454 19.115C78.5867 20.7363 77.6431 22.136 76.4144 23.314C75.1857 24.492 73.7227 25.404 72.0254 26.05C70.3281 26.6833 68.4407 27 66.3634 27H57.2434ZM63.5514 21.129H66.0404C67.1804 21.129 68.2127 20.9707 69.1374 20.654C70.0621 20.3373 70.8601 19.8623 71.5314 19.229C72.2154 18.5957 72.7347 17.8167 73.0894 16.892C73.4567 15.9673 73.6404 14.9033 73.6404 13.7C73.6404 12.0913 73.3237 10.736 72.6904 9.634C72.0571 8.51933 71.1641 7.68333 70.0114 7.126C68.8714 6.556 67.5477 6.271 66.0404 6.271H63.5514V21.129ZM84.8899 27V0.399998H94.0099C96.7712 0.399998 99.1906 0.963665 101.268 2.091C103.358 3.21833 104.986 4.78267 106.151 6.784C107.316 8.77267 107.899 11.078 107.899 13.7C107.899 15.676 107.563 17.481 106.892 19.115C106.233 20.7363 105.29 22.136 104.061 23.314C102.832 24.492 101.369 25.404 99.6719 26.05C97.9745 26.6833 96.0872 27 94.0099 27H84.8899ZM91.1979 21.129H93.6869C94.8269 21.129 95.8592 20.9707 96.7839 20.654C97.7085 20.3373 98.5066 19.8623 99.1779 19.229C99.8619 18.5957 100.381 17.8167 100.736 16.892C101.103 15.9673 101.287 14.9033 101.287 13.7C101.287 12.0913 100.97 10.736 100.337 9.634C99.7036 8.51933 98.8105 7.68333 97.6579 7.126C96.5179 6.556 95.1942 6.271 93.6869 6.271H91.1979V21.129ZM117.038 27V15.885L107.709 0.399998H114.796L120.325 9.843L125.797 0.399998H132.694L123.365 15.942V27H117.038Z" fill="#31302A"/>
</svg>
