<svg width="44" height="35" viewBox="0 0 44 35" fill="none" xmlns="http://www.w3.org/2000/svg">
<path d="M43.8257 31.5026L40.1709 16.4933C40.0031 15.783 39.4689 15.1376 38.6655 14.6748C37.8622 14.212 36.8431 13.9625 35.794 13.9717H8.0881C7.04219 13.9619 6.02574 14.2093 5.22283 14.6691C4.41993 15.1289 3.88367 15.7707 3.71118 16.4783L0.056447 31.5176C-0.0458168 31.95 -0.00880985 32.3926 0.164869 32.8143C0.338548 33.2359 0.644689 33.6263 1.0618 33.9582C1.47891 34.29 1.99687 34.5552 2.57933 34.7351C3.16178 34.9151 3.7946 35.0054 4.43337 34.9997H39.4487C40.0897 35.0058 40.7247 34.9152 41.309 34.7344C41.8933 34.5535 42.4125 34.2869 42.83 33.9533C43.2475 33.6198 43.5531 33.2274 43.7251 32.8039C43.8972 32.3804 43.9315 31.9361 43.8257 31.5026Z" fill="#C0FF82"/>
<g style="mix-blend-mode:multiply">
<path d="M22 0C19.6131 0 17.3239 0.865073 15.636 2.40491C13.9482 3.94475 13 6.03322 13 8.21089C13 15.3708 20.416 22.2187 20.722 22.5142C20.8893 22.6682 21.0884 22.7903 21.3078 22.8737C21.5271 22.9571 21.7624 23 22 23C22.2376 23 22.4729 22.9571 22.6922 22.8737C22.9116 22.7903 23.1107 22.6682 23.278 22.5142C23.584 22.2187 31 15.3708 31 8.21089C31 6.03322 30.0518 3.94475 28.364 2.40491C26.6761 0.865073 24.3869 0 22 0Z" fill="#CBCBCB"/>
</g>
</svg>
