<svg width="98" height="64" viewBox="0 0 98 64" fill="none" xmlns="http://www.w3.org/2000/svg">
<g id="ch_meet" clip-path="url(#clip0_1336_14252)">
<path id="Vector" d="M31.1887 47.7104C26.6765 47.7104 23.0205 44.0471 23.0205 39.5323C23.0205 35.0176 26.6794 31.3542 31.1887 31.3542H35.7008L34.5641 21.1287C34.5641 21.1287 34.5554 21.1432 34.5525 21.1519C33.2799 18.2907 30.4164 16.2954 27.0872 16.2954C23.7581 16.2954 21.181 18.0996 19.8245 20.732C18.4679 18.0967 15.7259 16.2954 12.5617 16.2954C8.04953 16.2954 4.39354 19.9588 4.39354 24.4735C4.39354 24.488 4.39354 24.5025 4.39354 24.5169H4.38776L0 64H66.8113C71.3235 64 74.9795 60.3367 74.9795 55.8219C74.9795 51.6576 71.8701 48.223 67.8497 47.7104H31.1887Z" fill="#CEE8FF"/>
<path id="Vector_2" d="M98.0005 47.7104L93.6098 8.22447H93.604C93.604 8.22447 93.604 8.19551 93.604 8.18103C93.604 3.66338 89.9452 0.00292969 85.4359 0.00292969C82.2717 0.00292969 79.5297 1.80709 78.1731 4.43949C76.8166 1.8042 74.0746 0.00292969 70.9103 0.00292969C67.5812 0.00292969 64.7177 1.99822 63.4451 4.8594C62.1724 1.99822 59.309 0.00292969 55.9798 0.00292969C52.6507 0.00292969 49.9897 1.85922 48.6563 4.55822C47.3229 1.85922 44.5433 0.00292969 41.3327 0.00292969C36.8206 0.00292969 33.1646 3.66628 33.1646 8.18103C33.1646 8.19551 33.1646 8.20999 33.1646 8.22447H33.1328L33.1733 8.58356C33.1907 8.91949 33.2283 9.24963 33.2832 9.57397L34.5674 21.1287C35.8459 18.2791 38.7007 16.2925 42.0211 16.2925C45.3416 16.2925 48.0113 18.1488 49.3447 20.8478C50.6781 18.1488 53.4576 16.2925 56.6682 16.2925C61.1803 16.2925 64.8363 19.9559 64.8363 24.4706C64.8363 24.4851 64.8363 24.4996 64.8363 24.5141H64.8681L64.8276 24.8732C64.8103 25.2091 64.7727 25.5392 64.7177 25.8636L62.2968 47.6438H66.8089C67.1618 47.6438 67.5089 47.6699 67.8502 47.7133H98.0005V47.7104Z" fill="#FFF798"/>
<path id="Vector_3" d="M62.2993 47.6409L64.7202 25.8606C64.7751 25.5362 64.8127 25.2061 64.8301 24.8702L64.8706 24.5111H64.8388C64.8388 24.5111 64.8388 24.4821 64.8388 24.4677C64.8388 19.95 61.1799 16.2896 56.6707 16.2896C53.4572 16.2896 50.6805 18.1458 49.3471 20.8448C48.0137 18.1458 45.2341 16.2896 42.0236 16.2896C38.813 16.2896 35.8454 18.2762 34.5699 21.1257L35.7066 31.3513H31.1945C26.6823 31.3513 23.0264 35.0146 23.0264 39.5294C23.0264 44.0441 26.6852 47.7075 31.1945 47.7075H67.8555C67.5142 47.664 67.1671 47.638 66.8143 47.638H62.3021L62.2993 47.6409Z" fill="#C7DDC4"/>
</g>
<defs>
<clipPath id="clip0_1336_14252">
<rect width="98" height="64" fill="white"/>
</clipPath>
</defs>
</svg>
