<svg width="35" height="38" viewBox="0 0 35 38" fill="none" xmlns="http://www.w3.org/2000/svg">
<path d="M2.53494 7.06354L12.5349 1.39687C14.0641 0.53035 15.9359 0.530349 17.4651 1.39687L27.4154 7.03541C29.0085 7.93815 29.9807 9.63947 29.9497 11.4703L29.5833 33.0847C29.5371 35.8127 27.3124 38 24.584 38H5C2.23858 38 0 35.7614 0 33V11.4136C0 9.61293 0.968273 7.95131 2.53494 7.06354Z" fill="#FFE661"/>
<g style="mix-blend-mode:multiply">
<path d="M33.9229 15.1766C33.6038 15.0245 33.2494 14.969 32.9009 15.0165C32.5525 15.064 32.2242 15.2126 31.9543 15.4449L9.6688 34.6081C9.37512 34.8604 9.16403 35.2001 9.06432 35.5808C8.96462 35.9615 8.98115 36.3646 9.11166 36.7352C9.24143 37.1056 9.47863 37.4257 9.79099 37.652C10.1033 37.8783 10.4757 37.9998 10.8574 38H33.1429C33.6354 38 34.1078 37.7981 34.4561 37.4387C34.8043 37.0793 35 36.5919 35 36.0837V16.9205C35.0009 16.554 34.8999 16.1949 34.709 15.8858C34.518 15.5767 34.2452 15.3306 33.9229 15.1766Z" fill="#CBCBCB"/>
</g>
</svg>
