<svg width="43" height="44" viewBox="0 0 43 44" fill="none" xmlns="http://www.w3.org/2000/svg">
<path d="M21.5001 6.80529C22.3318 6.80529 22.8987 4.95523 23.1146 3.08942C23.3849 0.751932 22.4153 0 21.5001 0C20.5833 0 19.6152 0.751932 19.884 3.08942C20.1 4.95523 20.6656 6.80529 21.5001 6.80529Z" fill="#FF9BB9"/>
<path d="M21.5 36.9909C20.6655 36.9909 20.0999 38.8411 19.884 40.7075C19.6152 43.0443 20.5834 43.7969 21.5 43.7969C22.4153 43.7969 23.3848 43.0443 23.1145 40.7075C22.8987 38.8411 22.3317 36.9909 21.5 36.9909Z" fill="#FF9BB9"/>
<path d="M14.0364 8.80784C14.758 8.38568 14.3415 6.49233 13.6116 4.76845C12.6977 2.60692 11.4899 2.45012 10.6958 2.91548C9.90177 3.38297 9.43376 4.5273 10.8129 6.41491C11.9175 7.91886 13.3148 9.23273 14.0364 8.80784Z" fill="#FF9BB9"/>
<path d="M28.9625 34.989C28.2423 35.4104 28.6574 37.3038 29.3859 39.0291C30.3012 41.1899 31.509 41.3467 32.303 40.8806C33.0958 40.4146 33.5666 39.2688 32.1861 37.3819C31.0828 35.878 29.6841 34.5648 28.9625 34.989Z" fill="#FF9BB9"/>
<path d="M6.29526 11.0144C4.44388 9.60985 3.31962 10.0886 2.86127 10.896C2.403 11.7047 2.55763 12.9341 4.67931 13.8663C6.37329 14.609 8.23164 15.0311 8.64682 14.299C9.06334 13.5634 7.77195 12.1381 6.29526 11.0144Z" fill="#FF9BB9"/>
<path d="M38.3183 29.9313C36.6271 29.1871 34.7673 28.7657 34.3522 29.4979C33.9356 30.2336 35.227 31.6587 36.7037 32.7824C38.5565 34.187 39.6793 33.7088 40.1363 32.9008C40.596 32.0928 40.4414 30.8628 38.3183 29.9313Z" fill="#FF9BB9"/>
<path d="M6.67991 21.8977C6.67991 21.0506 4.86188 20.4739 3.03141 20.2533C0.736958 19.9788 0 20.9662 0 21.8977C0 22.8319 0.736958 23.818 3.03141 23.5442C4.86188 23.325 6.67991 22.7468 6.67991 21.8977Z" fill="#FF9BB9"/>
<path d="M39.9675 20.2525C38.1369 20.4739 36.3203 21.0499 36.3203 21.8977C36.3203 22.7468 38.1369 23.3236 39.9675 23.5434C42.2634 23.8187 43.0003 22.8312 43.0003 21.8977C43.0003 20.9648 42.2634 19.9787 39.9675 20.2525Z" fill="#FF9BB9"/>
<path d="M4.67931 29.9313C2.55763 30.8628 2.403 32.0928 2.86127 32.9008C3.32105 33.7088 4.44388 34.187 6.29526 32.7824C7.77195 31.6587 9.06192 30.2335 8.64539 29.4979C8.23164 28.7657 6.37329 29.1871 4.67931 29.9313Z" fill="#FF9BB9"/>
<path d="M38.3182 13.8662C40.4413 12.9341 40.596 11.7047 40.1363 10.896C39.6793 10.0873 38.5564 9.60983 36.7037 11.0144C35.2269 12.1381 33.9356 13.5633 34.3522 14.2989C34.7672 15.031 36.627 14.609 38.3182 13.8662Z" fill="#FF9BB9"/>
<path d="M10.8127 37.3819C9.43352 39.2688 9.90153 40.4146 10.6956 40.8806C11.491 41.3467 12.6975 41.1899 13.6113 39.0291C14.3413 37.3038 14.7579 35.4104 14.0362 34.989C13.316 34.5648 11.9174 35.878 10.8127 37.3819Z" fill="#FF9BB9"/>
<path d="M32.1858 6.41496C33.5663 4.52726 33.0983 3.38302 32.3027 2.91552C31.5087 2.45016 30.3009 2.60688 29.3856 4.76849C28.6571 6.49238 28.2405 8.38572 28.9621 8.80788C29.6824 9.23269 31.0825 7.91882 32.1858 6.41496Z" fill="#FF9BB9"/>
<path d="M19.7475 15.0658C20.3757 14.8956 20.4343 13.3923 20.2267 11.9466C19.969 10.1369 19.0928 9.76946 18.406 9.95954C17.7164 10.1433 17.1369 10.9074 17.8 12.607C18.3321 13.9649 19.1248 15.2397 19.7475 15.0658Z" fill="#CBCBCB"/>
<path d="M23.2508 28.7289C22.6281 28.9006 22.5654 30.4088 22.7716 31.8524C23.0307 33.6621 23.907 34.0288 24.5951 33.8387C25.2833 33.6507 25.8628 32.8895 25.1997 31.1919C24.669 29.8341 23.8763 28.5593 23.2508 28.7289Z" fill="#CBCBCB"/>
<path d="M12.9176 13.1851C12.4175 13.7001 12.2879 14.6507 13.6991 15.7879C14.8219 16.6902 16.1356 17.3911 16.5898 16.9251C17.0481 16.4575 16.3626 15.1224 15.4767 13.9789C14.3637 12.5424 13.4219 12.6729 12.9176 13.1851Z" fill="#CBCBCB"/>
<path d="M30.0783 30.6124C30.5826 30.0994 30.7107 29.1453 29.301 28.0089C28.1753 27.1066 26.8672 26.4085 26.4089 26.8732C25.9533 27.3385 26.6387 28.675 27.5262 29.8193C28.6392 31.2544 29.5753 31.1246 30.0783 30.6124Z" fill="#CBCBCB"/>
<path d="M11.7126 20.5811C13.1322 20.7918 14.6117 20.7307 14.776 20.0923C14.946 19.4559 13.6935 18.6486 12.3619 18.1088C10.6944 17.4335 9.94902 18.0243 9.7623 18.7245C9.57701 19.4226 9.93642 20.3165 11.7126 20.5811Z" fill="#CBCBCB"/>
<path d="M31.2864 23.217C29.8682 23.0084 28.3915 23.0688 28.2216 23.7037C28.0545 24.3408 29.3055 25.1458 30.6373 25.6872C32.3061 26.3639 33.0543 25.7716 33.2382 25.0721C33.4248 24.3712 33.0653 23.4795 31.2864 23.217Z" fill="#CBCBCB"/>
<path d="M12.3773 25.668C13.7091 25.1267 14.9615 24.318 14.793 23.6795C14.6257 23.0467 13.1464 22.985 11.7281 23.1957C9.9505 23.4574 9.59117 24.3513 9.77646 25.0493C9.96033 25.751 10.7085 26.3412 12.3773 25.668Z" fill="#CBCBCB"/>
<path d="M30.6215 18.1301C29.2897 18.6749 28.0387 19.4787 28.2072 20.1143C28.3744 20.7513 29.8524 20.8131 31.272 20.6031C33.0497 20.3392 33.409 19.4453 33.2238 18.7479C33.0386 18.045 32.2918 17.4548 30.6215 18.1301Z" fill="#CBCBCB"/>
<path d="M13.72 28.0359C12.313 29.1674 12.4412 30.1272 12.9455 30.6373C13.4497 31.1487 14.3873 31.28 15.5004 29.8441C16.385 28.7005 17.0731 27.3661 16.6162 26.8986C16.1566 26.4326 14.8456 27.1313 13.72 28.0359Z" fill="#CBCBCB"/>
<path d="M29.2775 15.7637C30.6873 14.6294 30.5578 13.671 30.0576 13.161C29.5547 12.6467 28.6145 12.5176 27.5027 13.954C26.6139 15.0998 25.9285 16.4355 26.3854 16.8988C26.8424 17.3648 28.1533 16.6654 29.2775 15.7637Z" fill="#CBCBCB"/>
<path d="M19.7254 28.7445C19.1027 28.5742 18.31 29.8468 17.7793 31.2047C17.1147 32.9044 17.6929 33.6684 18.3838 33.8528C19.0721 34.0429 19.9483 33.6762 20.206 31.8665C20.4135 30.4214 20.3508 28.9154 19.7254 28.7445Z" fill="#CBCBCB"/>
<path d="M24.6163 9.94399C23.9295 9.75391 23.0519 10.1206 22.7956 11.9303C22.588 13.3776 22.6493 14.8814 23.2734 15.0523C23.8974 15.2255 24.6902 13.9492 25.2208 12.5943C25.8841 10.8939 25.3073 10.1335 24.6163 9.94399Z" fill="#CBCBCB"/>
<path d="M18.0176 21.8978C18.0176 23.8571 19.5765 25.4448 21.5004 25.4448C23.4228 25.4448 24.9831 23.8571 24.9831 21.8978C24.9831 19.9398 23.4228 18.3521 21.5004 18.3521C19.5764 18.3521 18.0176 19.9398 18.0176 21.8978Z" fill="#FF9BB9"/>
</svg>
