<svg width="43" height="34" viewBox="0 0 43 34" fill="none" xmlns="http://www.w3.org/2000/svg">
<path d="M39.8559 4.79373C39.1953 4.45235 38.458 4.29442 37.7183 4.33585C36.9786 4.37729 36.2627 4.61662 35.6428 5.02972C33.9923 6.19568 32.0269 6.81045 30.0183 6.78898H12.1127C10.1328 6.79276 8.19936 6.1788 6.57244 5.02972C5.95255 4.61662 5.23667 4.37729 4.49699 4.33585C3.75731 4.29442 3.01998 4.45235 2.35934 4.79373C1.65027 5.14757 1.0531 5.69724 0.635939 6.38005C0.218782 7.06286 -0.00157178 7.85132 8.43981e-06 8.65552V11.2086C0.0328121 14.0091 1.13972 16.6855 3.08423 18.6659C5.02873 20.6463 7.65661 21.7737 10.4064 21.8071H31.7246C34.4744 21.7737 37.1023 20.6463 39.0468 18.6659C40.9913 16.6855 42.0982 14.0091 42.131 11.2086V8.65552C42.1404 7.86033 41.9326 7.07812 41.5309 6.3962C41.1292 5.71428 40.5493 5.15948 39.8559 4.79373Z" fill="#9ED6FF"/>
<g style="mix-blend-mode:multiply">
<path d="M11.8809 33.9997C11.4501 34.0074 11.0285 33.8719 10.6802 33.6135L7.22542 31.1463C6.98584 30.9826 6.78182 30.7706 6.62601 30.5233C6.47019 30.276 6.3659 29.9988 6.3196 29.7088C6.26907 29.4312 6.27282 29.1462 6.33066 28.8701C6.3885 28.5939 6.49928 28.3322 6.65665 28.0997L7.85739 26.3405C8.28423 25.7231 8.86349 25.2313 9.53666 24.9149C10.2098 24.5985 10.9531 24.4686 11.6913 24.5383L28.2277 0.595186C28.5819 0.250052 29.0433 0.0415425 29.5322 0.00557655C30.0211 -0.0303894 30.5071 0.108441 30.9063 0.398151C31.3056 0.687862 31.5931 1.11031 31.7194 1.59272C31.8457 2.07513 31.8028 2.5873 31.5982 3.04099L15.1882 27.0485C15.3375 27.391 15.4437 27.7515 15.5042 28.1212C15.6001 28.6785 15.5823 29.25 15.4518 29.8C15.3213 30.3499 15.081 30.8667 14.7458 31.3179L13.5451 33.0771C13.3851 33.3085 13.1817 33.5053 12.9467 33.6563C12.7117 33.8072 12.4497 33.9094 12.1758 33.9568C12.08 33.9852 11.9807 33.9997 11.8809 33.9997Z" fill="#CBCBCB"/>
</g>
</svg>
