<svg width="155" height="64" viewBox="0 0 155 64" fill="none" xmlns="http://www.w3.org/2000/svg">
<g filter="url(#filter0_d_2527_14131)">
<path d="M122.869 0H32.1305C17.699 0 6 11.6406 6 26C6 40.3594 17.699 52 32.1305 52H122.869C137.301 52 149 40.3594 149 26C149 11.6406 137.301 0 122.869 0Z" fill="white"/>
</g>
<path d="M32.1305 52C46.562 52 58.261 40.3594 58.261 26C58.261 11.6406 46.562 0 32.1305 0C17.699 0 6 11.6406 6 26C6 40.3594 17.699 52 32.1305 52Z" fill="#FAE100"/>
<path d="M73.166 21.7224C72.0902 21.7224 71.1311 21.4901 70.285 21.0234C69.4388 20.5586 68.7707 19.9205 68.2788 19.111C67.7868 18.3015 67.5417 17.3891 67.5417 16.372C67.5417 15.6062 67.6853 14.8996 67.9744 14.252C68.2634 13.6043 68.6674 13.0386 69.1881 12.5529C69.7088 12.0672 70.3194 11.692 71.0201 11.4234C71.7207 11.1567 72.4788 11.0215 73.2943 11.0215C74.0638 11.0215 74.7779 11.1262 75.4345 11.3339C76.0911 11.5415 76.6826 11.8539 77.2072 12.2691L75.7733 14.6862C75.4479 14.3891 75.0918 14.1701 74.7032 14.0272C74.3146 13.8843 73.9088 13.8139 73.4838 13.8139C72.9267 13.8139 72.4443 13.9148 72.0404 14.1167C71.6346 14.3186 71.3244 14.6082 71.11 14.9891C70.8937 15.3682 70.7865 15.8253 70.7865 16.3605C70.7865 17.1662 71.0277 17.7948 71.5082 18.2482C71.9887 18.7015 72.6511 18.9262 73.4934 18.9262C73.972 18.9262 74.4199 18.8386 74.843 18.6634C75.2641 18.4882 75.6508 18.2329 76.0031 17.8958L77.3278 20.3529C76.7573 20.7758 76.1045 21.1091 75.3713 21.3529C74.6381 21.5967 73.903 21.7186 73.166 21.7186V21.7224Z" fill="black"/>
<path d="M78.821 21.425V7.16211H82.0868V13.5812L81.4091 12.7793C81.8475 12.244 82.3682 11.8193 82.9712 11.5012C83.5742 11.185 84.2423 11.025 84.9717 11.025C85.9212 11.025 86.7118 11.2135 87.3454 11.5888C87.9791 11.9659 88.4519 12.4573 88.764 13.065C89.076 13.6726 89.2311 14.3259 89.2311 15.0269V21.425H85.9652V15.9469C85.9652 15.3602 85.7968 14.884 85.4579 14.5202C85.1191 14.1564 84.6443 13.9716 84.0337 13.9659C83.6221 13.9602 83.2718 14.0402 82.9827 14.2078C82.6936 14.3754 82.4716 14.6193 82.3165 14.9354C82.1615 15.2516 82.083 15.6231 82.083 16.044V21.4231H78.8171L78.821 21.425Z" fill="black"/>
<path d="M94.4993 21.7221C93.8293 21.7221 93.2244 21.5907 92.6884 21.3316C92.1504 21.0707 91.7236 20.6974 91.4096 20.2116C91.0937 19.7259 90.9368 19.1431 90.9368 18.4631C90.9368 17.8821 91.0823 17.3678 91.3751 16.9183C91.6661 16.4688 92.1045 16.0993 92.6884 15.8097C93.2722 15.5183 94.0073 15.3221 94.8937 15.2212C95.78 15.1183 96.8157 15.1202 98.0044 15.2269L98.0351 17.2478C97.4053 17.1355 96.8348 17.0783 96.3275 17.0745C95.8202 17.0707 95.3876 17.1145 95.0334 17.204C94.6793 17.2935 94.4055 17.4307 94.2122 17.6155C94.0188 17.8002 93.9231 18.0288 93.9231 18.2993C93.9231 18.6497 94.0571 18.9164 94.327 19.1012C94.595 19.2859 94.9549 19.3793 95.4067 19.3793C95.7972 19.3793 96.1514 19.3107 96.4672 19.1716C96.7831 19.0326 97.0339 18.8307 97.2196 18.5621C97.4053 18.2954 97.4991 17.9659 97.4991 17.5774V15.2802C97.4991 14.9107 97.4244 14.5869 97.2751 14.3088C97.1258 14.0307 96.8865 13.8154 96.5591 13.6593C96.2299 13.505 95.7934 13.4269 95.2497 13.4269C94.7061 13.4269 94.1969 13.5069 93.6819 13.665C93.167 13.8231 92.7037 14.0554 92.294 14.3583L91.4575 12.1297C92.1141 11.7202 92.8185 11.4193 93.567 11.2231C94.3175 11.0288 95.0545 10.9316 95.7762 10.9316C96.7314 10.9316 97.5737 11.084 98.2993 11.3869C99.0267 11.6897 99.5953 12.1602 100.007 12.7926C100.418 13.4269 100.623 14.2383 100.623 15.2288V21.4288H97.7958V20.3583C97.4704 20.7945 97.0224 21.1316 96.4519 21.3678C95.8815 21.604 95.2306 21.724 94.5012 21.724L94.4993 21.7221Z" fill="black"/>
<path d="M101.875 13.8983V11.3231H104.146V13.8983H101.875ZM107.469 21.7231C106.341 21.7231 105.455 21.4069 104.812 20.7764C104.169 20.1459 103.847 19.2031 103.847 17.9478V8.43164H107.113V11.3231H109.492V13.8983H107.113V17.384C107.113 17.925 107.232 18.3059 107.471 18.5231C107.71 18.7402 108.018 18.8507 108.397 18.8507C108.602 18.8507 108.807 18.8259 109.01 18.7764C109.213 18.7269 109.4 18.6526 109.573 18.5535L109.99 21.0983C109.678 21.2697 109.303 21.4164 108.864 21.5383C108.426 21.6602 107.963 21.7212 107.471 21.7212L107.469 21.7231Z" fill="black"/>
<path d="M68.3476 41.6164V27.3535H71.6134V33.7726L70.9357 32.9707C71.3741 32.4354 71.8948 32.0107 72.4978 31.6926C73.1008 31.3764 73.7689 31.2164 74.4983 31.2164C75.4478 31.2164 76.2384 31.4049 76.8721 31.7802C77.5057 32.1573 77.9785 32.6488 78.2906 33.2564C78.6026 33.864 78.7577 34.5173 78.7577 35.2183V41.6164H75.4918V36.1383C75.4918 35.5516 75.3234 35.0754 74.9845 34.7116C74.6457 34.3478 74.171 34.163 73.5603 34.1573C73.1487 34.1516 72.7984 34.2316 72.5093 34.3992C72.2203 34.5668 71.9982 34.8107 71.8431 35.1268C71.6881 35.443 71.6096 35.8145 71.6096 36.2354V41.6145H68.3438L68.3476 41.6164Z" fill="black"/>
<path d="M85.9882 41.912C84.8741 41.912 83.892 41.6892 83.0459 41.2435C82.1998 40.7977 81.5432 40.173 81.0741 39.3711C80.607 38.5692 80.3716 37.6301 80.3716 36.5539C80.3716 35.7749 80.5075 35.0587 80.7793 34.4054C81.0512 33.752 81.4359 33.1863 81.9337 32.712C82.4314 32.2358 83.0172 31.8682 83.691 31.6073C84.3649 31.3463 85.1057 31.2168 85.9155 31.2168C86.8037 31.2168 87.5982 31.373 88.295 31.6873C88.9918 32.0016 89.568 32.4377 90.0217 32.9939C90.4754 33.552 90.7893 34.2092 90.9616 34.9654C91.1339 35.7216 91.1416 36.5425 90.9808 37.4263H83.356C83.3618 37.8225 83.4824 38.1692 83.714 38.4663C83.9456 38.7635 84.2653 38.9958 84.6692 39.1654C85.0732 39.333 85.546 39.4187 86.082 39.4187C86.6793 39.4187 87.2459 39.3406 87.7838 39.1863C88.3218 39.032 88.8348 38.792 89.3268 38.4682L90.3529 40.6663C90.0408 40.9044 89.6369 41.1178 89.143 41.3044C88.6491 41.493 88.1246 41.6416 87.5694 41.7501C87.0143 41.8587 86.4859 41.9139 85.9825 41.9139L85.9882 41.912ZM83.5589 35.2358H87.8796C87.8662 34.7273 87.6766 34.3216 87.3129 34.0168C86.9473 33.7139 86.4534 33.5616 85.8293 33.5616C85.2053 33.5616 84.6769 33.7139 84.2615 34.0168C83.8461 34.3197 83.6125 34.7273 83.5589 35.2358Z" fill="black"/>
<path d="M92.8069 41.6164V27.3535H96.0727V41.6164H92.8069Z" fill="black"/>
<path d="M98.5901 45.7748V31.512H101.408V32.6701C101.787 32.2282 102.269 31.8739 102.857 31.611C103.445 31.3463 104.126 31.2148 104.904 31.2148C105.872 31.2148 106.737 31.4358 107.497 31.8777C108.257 32.3196 108.857 32.9444 109.295 33.7501C109.733 34.5558 109.952 35.4929 109.952 36.5634C109.952 37.3158 109.827 38.0187 109.578 38.6682C109.329 39.3196 108.975 39.8872 108.518 40.371C108.06 40.8567 107.52 41.2339 106.9 41.5044C106.28 41.7748 105.595 41.9101 104.844 41.9101C104.247 41.9101 103.698 41.8167 103.196 41.6282C102.694 41.4396 102.245 41.1672 101.846 40.811V45.7729H98.592L98.5901 45.7748ZM104.295 39.1196C104.766 39.1196 105.187 39.0148 105.558 38.8072C105.93 38.5996 106.222 38.3044 106.435 37.9215C106.647 37.5387 106.753 37.0853 106.753 36.5653C106.753 36.0453 106.646 35.592 106.429 35.2091C106.213 34.8263 105.92 34.531 105.549 34.3234C105.177 34.1158 104.758 34.011 104.295 34.011C103.831 34.011 103.412 34.1158 103.041 34.3234C102.67 34.531 102.377 34.8263 102.164 35.2091C101.952 35.592 101.846 36.0453 101.846 36.5653C101.846 37.0853 101.952 37.5387 102.164 37.9215C102.377 38.3044 102.668 38.5996 103.035 38.8072C103.403 39.0148 103.824 39.1196 104.295 39.1196Z" fill="black"/>
<path d="M116.458 41.912C115.344 41.912 114.362 41.6892 113.516 41.2435C112.67 40.7977 112.013 40.173 111.544 39.3711C111.077 38.5692 110.842 37.6301 110.842 36.5539C110.842 35.7749 110.978 35.0587 111.25 34.4054C111.521 33.752 111.906 33.1863 112.404 32.712C112.902 32.2358 113.487 31.8682 114.161 31.6073C114.835 31.3463 115.576 31.2168 116.386 31.2168C117.274 31.2168 118.068 31.373 118.765 31.6873C119.462 32.0016 120.038 32.4377 120.492 32.9939C120.946 33.552 121.26 34.2092 121.432 34.9654C121.604 35.7216 121.612 36.5425 121.451 37.4263H113.826C113.832 37.8225 113.953 38.1692 114.184 38.4663C114.416 38.7635 114.736 38.9958 115.139 39.1654C115.543 39.333 116.016 39.4187 116.552 39.4187C117.149 39.4187 117.716 39.3406 118.254 39.1863C118.792 39.032 119.305 38.792 119.797 38.4682L120.823 40.6663C120.511 40.9044 120.107 41.1178 119.613 41.3044C119.119 41.493 118.595 41.6416 118.04 41.7501C117.485 41.8587 116.956 41.9139 116.453 41.9139L116.458 41.912ZM114.029 35.2358H118.35C118.336 34.7273 118.147 34.3216 117.783 34.0168C117.418 33.7139 116.924 33.5616 116.3 33.5616C115.675 33.5616 115.147 33.7139 114.732 34.0168C114.316 34.3197 114.083 34.7273 114.029 35.2358Z" fill="black"/>
<path d="M123.277 41.6163V31.5135H126.543V32.6925C126.848 32.1706 127.253 31.7916 127.757 31.5535C128.26 31.3154 128.808 31.1973 129.399 31.1973C129.625 31.1973 129.828 31.2106 130.006 31.2373C130.186 31.2639 130.36 31.2925 130.535 31.3268L130.146 34.6754C129.92 34.5896 129.681 34.523 129.43 34.4773C129.177 34.4316 128.927 34.4087 128.674 34.4087C128.057 34.4087 127.548 34.5839 127.146 34.9344C126.744 35.2849 126.543 35.7992 126.543 36.4792V41.6201H123.277V41.6163Z" fill="black"/>
<path d="M32.1592 12.9531C23.9505 12.9531 17.2944 18.1741 17.2944 24.6122C17.2944 28.7531 20.0491 32.3893 24.1994 34.4579L22.8096 39.8331C22.7043 40.2407 23.1657 40.5569 23.5102 40.315L29.5289 36.0884C30.3827 36.2084 31.2594 36.2731 32.1572 36.2731C40.3659 36.2731 47.022 31.0522 47.022 24.6141C47.022 18.176 40.3678 12.955 32.1572 12.955L32.1592 12.9531Z" fill="#371D1E"/>
<defs>
<filter id="filter0_d_2527_14131" x="0" y="0" width="155" height="64" filterUnits="userSpaceOnUse" color-interpolation-filters="sRGB">
<feFlood flood-opacity="0" result="BackgroundImageFix"/>
<feColorMatrix in="SourceAlpha" type="matrix" values="0 0 0 0 0 0 0 0 0 0 0 0 0 0 0 0 0 0 127 0" result="hardAlpha"/>
<feOffset dy="6"/>
<feGaussianBlur stdDeviation="3"/>
<feComposite in2="hardAlpha" operator="out"/>
<feColorMatrix type="matrix" values="0 0 0 0 0 0 0 0 0 0 0 0 0 0 0 0 0 0 0.25 0"/>
<feBlend mode="normal" in2="BackgroundImageFix" result="effect1_dropShadow_2527_14131"/>
<feBlend mode="normal" in="SourceGraphic" in2="effect1_dropShadow_2527_14131" result="shape"/>
</filter>
</defs>
</svg>
