<svg width="36" height="36" viewBox="0 0 36 36" fill="none" xmlns="http://www.w3.org/2000/svg">
<circle cx="18" cy="18" r="18" fill="#444444"/>
<path d="M27 17V24C27 25.1046 26.1046 26 25 26H11C9.89543 26 9 25.1046 9 24V15C9 13.8954 9.89543 13 11 13H12.5C13.1295 13 13.7223 12.7036 14.1 12.2L15.15 10.8C15.5277 10.2964 16.1205 10 16.75 10H19.25" fill="#444444"/>
<path d="M27 17V24C27 25.1046 26.1046 26 25 26H11C9.89543 26 9 25.1046 9 24V15C9 13.8954 9.89543 13 11 13H12.5C13.1295 13 13.7223 12.7036 14.1 12.2L15.15 10.8C15.5277 10.2964 16.1205 10 16.75 10H19.25" stroke="white" stroke-width="1.5" stroke-linecap="round" stroke-linejoin="round"/>
<path d="M24.5005 10V12.5V10ZM24.5005 15V12.5V15ZM24.5005 12.5H22.0005H24.5005ZM24.5005 12.5H27.0005H24.5005Z" fill="#444444"/>
<path d="M24.5005 10V12.5M24.5005 12.5V15M24.5005 12.5H22.0005M24.5005 12.5H27.0005" stroke="white" stroke-width="1.5" stroke-linecap="round" stroke-linejoin="round"/>
<path d="M18.2502 22C20.0452 22 21.5002 20.5449 21.5002 18.75C21.5002 16.9551 20.0452 15.5 18.2502 15.5C16.4553 15.5 15.0002 16.9551 15.0002 18.75C15.0002 20.5449 16.4553 22 18.2502 22Z" fill="#444444" stroke="white" stroke-width="1.5" stroke-linecap="round" stroke-linejoin="round"/>
</svg>
