<svg width="36" height="36" viewBox="0 0 36 36" fill="none" xmlns="http://www.w3.org/2000/svg">
<g id="done">
<g id="Group 158">
<path id="Vector" d="M12.8003 15.4001L18.0003 20.1667C18.6048 20.62 19.4564 20.5309 19.954 19.9623L29.5558 7.88867" stroke="#31302A" stroke-width="2.6" stroke-linecap="round" stroke-linejoin="round"/>
<path id="Vector_2" d="M31 18C31 20.7163 30.1492 23.3642 28.567 25.5722C26.9849 27.7802 24.7508 29.437 22.1788 30.3101C19.6067 31.1832 16.8257 31.2287 14.2263 30.4403C11.627 29.6518 9.33996 28.0688 7.68641 25.914C6.03285 23.759 5.09584 21.1402 5.00696 18.4254C4.91809 15.7106 5.68182 13.0361 7.19089 10.7776C8.69997 8.5191 10.8786 6.79003 13.4208 5.83323C15.9629 4.87642 18.741 4.73995 21.3647 5.44297" stroke="#31302A" stroke-width="2.6" stroke-linecap="round"/>
</g>
</g>
</svg>
