<svg width="40" height="36" viewBox="0 0 40 36" fill="none" xmlns="http://www.w3.org/2000/svg">
<path d="M38 16V30C38 32.2092 36.2092 34 34 34H6C3.79086 34 2 32.2092 2 30V12C2 9.79086 3.79086 8 6 8H9C10.259 8 11.4446 7.40722 12.2 6.4L14.3 3.6C15.0554 2.59278 16.241 2 17.5 2H22.5" stroke="white" stroke-width="3" stroke-linecap="round" stroke-linejoin="round"/>
<path d="M33 2V7M33 7V12M33 7H28M33 7H38" stroke="white" stroke-width="3" stroke-linecap="round" stroke-linejoin="round"/>
<path d="M20.5 26C24.0899 26 27 23.0899 27 19.5C27 15.9101 24.0899 13 20.5 13C16.9101 13 14 15.9101 14 19.5C14 23.0899 16.9101 26 20.5 26Z" stroke="white" stroke-width="3" stroke-linecap="round" stroke-linejoin="round"/>
</svg>
