<svg width="54" height="49" viewBox="0 0 54 49" fill="none" xmlns="http://www.w3.org/2000/svg">
<path d="M48.075 21.7264L39.457 40.4182C39.1859 40.9365 38.7358 41.334 38.1937 41.5339C37.6516 41.7338 37.056 41.7219 36.5221 41.5004L12.8181 30.2108C12.3111 29.9264 11.9094 29.4811 11.6739 28.9425L6.79245 15.203C6.58228 14.6115 6.61147 13.9591 6.87359 13.3893C7.13572 12.8196 7.60931 12.3792 8.19019 12.165L21.6598 7.19848C22.2134 7.00973 22.8163 7.03951 23.3492 7.28193L47.1627 18.5311C47.6961 18.8351 48.0907 19.3405 48.2613 19.9383C48.432 20.5361 48.3651 21.1783 48.075 21.7264Z" fill="#A3FFAC"/>
<g style="mix-blend-mode:multiply">
<path d="M17.2686 15.6731L2.55312 22.0502C1.69529 22.422 1.25519 23.45 1.57012 24.3464C1.88506 25.2428 2.83578 25.6682 3.69362 25.2964L18.4091 18.9193C19.2669 18.5475 19.707 17.5195 19.3921 16.6231C19.0772 15.7267 18.1265 15.3013 17.2686 15.6731Z" fill="#CBCBCB"/>
</g>
<g style="mix-blend-mode:multiply">
<path d="M20.4035 24.3759L8.68426 29.8039C7.81933 30.2045 7.38876 31.2667 7.72255 32.1763C8.05635 33.0858 9.02811 33.4984 9.89304 33.0978L21.6123 27.6698C22.4772 27.2691 22.9078 26.207 22.574 25.2974C22.2402 24.3878 21.2684 23.9752 20.4035 24.3759Z" fill="#CBCBCB"/>
</g>
</svg>
