<svg width="38" height="35" viewBox="0 0 38 35" fill="none" xmlns="http://www.w3.org/2000/svg">
<path d="M0 15.532C0 12.7706 2.23858 10.532 5 10.532H33C35.7614 10.532 38 12.7706 38 15.532V19.9494C38 23.9411 36.4431 27.7693 33.6717 30.5918C30.9003 33.4143 27.1415 35 23.2222 35H14.7778C10.8585 35 7.09968 33.4143 4.32831 30.5918C1.55694 27.7693 0 23.9411 0 19.9494V15.532Z" fill="#9EB3FF"/>
<g style="mix-blend-mode:multiply">
<path d="M10.2829 19.4722H6.06072C6.06527 17.9211 6.56135 16.4129 7.47516 15.172C7.97131 14.5738 8.22096 13.8033 8.17183 13.0219C8.19401 12.277 7.946 11.5498 7.47516 10.9793C6.54651 9.70537 6.05004 8.15828 6.06072 6.57166C6.06527 5.02055 6.56135 3.51237 7.47516 2.27148C7.97131 1.67332 8.22096 0.902831 8.17183 0.121399H12.394C12.4139 1.71267 11.9248 3.26732 11.0007 4.55057C10.5288 5.1134 10.2738 5.83163 10.2829 6.57166C10.244 7.35538 10.5008 8.1246 11.0007 8.72174C11.9056 9.96601 12.3941 11.4735 12.394 13.0219C12.4139 14.6132 11.9248 16.1678 11.0007 17.4511C10.5288 18.0139 10.2738 18.7321 10.2829 19.4722Z" fill="#CBCBCB"/>
</g>
<g style="mix-blend-mode:multiply">
<path d="M18.7275 19.4722H14.5053C14.5099 17.9211 15.0059 16.4129 15.9197 15.172C16.4159 14.5738 16.6655 13.8033 16.6164 13.0219C16.6386 12.277 16.3906 11.5498 15.9197 10.9793C14.9911 9.70537 14.4946 8.15828 14.5053 6.57166C14.5099 5.02055 15.0059 3.51237 15.9197 2.27148C16.4159 1.67332 16.6655 0.902831 16.6164 0.121399H20.8386C20.8585 1.71267 20.3694 3.26732 19.4453 4.55057C18.9734 5.1134 18.7184 5.83163 18.7275 6.57166C18.6886 7.35538 18.9454 8.1246 19.4453 8.72174C20.3502 9.96601 20.8387 11.4735 20.8386 13.0219C20.8585 14.6132 20.3694 16.1678 19.4453 17.4511C18.9734 18.0139 18.7184 18.7321 18.7275 19.4722Z" fill="#CBCBCB"/>
</g>
</svg>
