<svg width="46" height="41" viewBox="0 0 46 41" fill="none" xmlns="http://www.w3.org/2000/svg">
<path d="M39.4048 38.892H6.43456C6.17169 38.895 5.91089 38.8535 5.66848 38.77C5.42607 38.6865 5.20726 38.5629 5.02573 38.4069C4.84421 38.2508 4.70388 38.0657 4.61351 37.8632C4.52314 37.6606 4.48469 37.445 4.50055 37.2296L6.20432 11.7272C6.228 11.3246 6.43973 10.9449 6.79558 10.667C7.15143 10.3891 7.62404 10.2343 8.1153 10.2348H37.701C38.1923 10.2343 38.6649 10.3891 39.0207 10.667C39.3766 10.9449 39.5883 11.3246 39.612 11.7272L41.3388 37.2296C41.3546 37.445 41.3162 37.6606 41.2258 37.8632C41.1355 38.0657 40.9951 38.2508 40.8136 38.4069C40.6321 38.5629 40.4133 38.6865 40.1709 38.77C39.9284 38.8535 39.6676 38.895 39.4048 38.892Z" fill="#F4B3FF"/>
<g style="mix-blend-mode:multiply">
<path d="M14.5696 15.3456V16.4456C14.5696 18.1025 15.9127 19.4456 17.5696 19.4456H28.0321C29.689 19.4456 31.0321 18.1025 31.0321 16.4456V10.4051C31.0321 8.55111 30.2129 6.77305 28.7548 5.46208C27.2967 4.15111 25.319 3.41461 23.2569 3.41461H22.3448C20.2827 3.41461 18.305 4.15111 16.8469 5.46208C15.3888 6.77305 14.5696 8.55111 14.5696 10.4051V10.8151V15.3456Z" fill="#CBCBCB"/>
</g>
</svg>
