<svg width="40" height="29" viewBox="0 0 40 29" fill="none" xmlns="http://www.w3.org/2000/svg">
<rect x="11.6128" y="6.45163" width="18.0645" height="18.0645" fill="white"/>
<path fill-rule="evenodd" clip-rule="evenodd" d="M17.4264 20.8919C16.7621 21.3383 15.8687 20.8622 15.8687 20.0619V10.0296C15.8687 9.24677 16.7275 8.7675 17.3938 9.17847L25.1784 13.9805C25.7974 14.3623 25.8148 15.2561 25.2111 15.6617L17.4264 20.8919ZM39.6 6.23645C39.6 6.23645 39.2087 3.40404 38.01 2.15675C36.4887 0.518964 34.7837 0.511241 34.0025 0.416186C28.405 -6.0212e-06 20.0087 0 20.0087 0H19.9913C19.9913 0 11.595 -6.0212e-06 5.99751 0.416186C5.21501 0.511241 3.51125 0.518964 1.98875 2.15675C0.790004 3.40404 0.399996 6.23645 0.399996 6.23645C0.399996 6.23645 0 9.56341 0 12.8891V16.008C0 19.3349 0.399996 22.6606 0.399996 22.6606C0.399996 22.6606 0.790004 25.493 1.98875 26.7403C3.51125 28.3781 5.50999 28.3267 6.39999 28.4975C9.59999 28.8135 20 28.9112 20 28.9112C20 28.9112 28.405 28.8983 34.0025 28.4821C34.7837 28.3858 36.4887 28.3781 38.01 26.7403C39.2087 25.493 39.6 22.6606 39.6 22.6606C39.6 22.6606 40 19.3349 40 16.008V12.8891C40 9.56341 39.6 6.23645 39.6 6.23645Z" fill="#FFA3A3"/>
</svg>
