<svg width="28" height="28" viewBox="0 0 28 28" fill="none" xmlns="http://www.w3.org/2000/svg">
<g clip-path="url(#clip0_864_5952)">
<rect width="28" height="28" fill="white"/>
<path d="M21.8571 18.0002L21.8561 10.7996C21.8561 7.04382 18.4295 4 14.5238 4H13.4762C9.57047 4 6.01697 7.04382 6.01697 10.7996V18.0707L3 22.1324H25L21.8571 18.0002Z" stroke="#31302A" stroke-width="2" stroke-miterlimit="10" stroke-linejoin="round"/>
<path d="M13.936 25.9993C16.0881 25.9993 17.8329 24.3215 17.8329 22.252H10.0391C10.0391 24.3215 11.7839 25.9993 13.936 25.9993Z" stroke="#31302A" stroke-width="2" stroke-miterlimit="10"/>
<circle cx="20" cy="8" r="8" fill="#54A3FF"/>
<path d="M22.3551 5.18182V11H21.4176L18.6761 7.03693H18.6278V11H17.5739V5.18182H18.517L21.2557 9.14773H21.3068V5.18182H22.3551Z" fill="white"/>
</g>
<defs>
<clipPath id="clip0_864_5952">
<rect width="28" height="28" fill="white"/>
</clipPath>
</defs>
</svg>
