<svg width="100" height="100" viewBox="0 0 100 100" fill="none" xmlns="http://www.w3.org/2000/svg">
<g clip-path="url(#clip0_2434_5113)">
<circle cx="50" cy="50" r="50" fill="#E8E8E8"/>
<rect x="12" y="81" width="79" height="24" fill="#F7F7F7"/>
<path d="M85.7375 65.4848H80.6201L83.3644 40.8351C83.4286 40.4673 83.4691 40.0961 83.4893 39.7148L83.5332 39.3099H83.4995C83.4995 39.3099 83.4995 39.2761 83.4995 39.2626C83.4995 34.1505 79.3543 30.0034 74.2369 30.0034C70.5947 30.0034 67.4453 32.1056 65.933 35.1594C64.4208 32.1056 61.2714 30.0034 57.6292 30.0034C53.9869 30.0034 50.608 32.2642 49.1666 35.5002C47.732 32.2608 44.4847 30 40.7109 30C36.937 30 34.0137 32.0415 32.4779 35.0211C30.9386 32.0415 27.8297 30 24.2415 30C19.1275 30 14.979 34.1437 14.979 39.2593C14.979 39.2761 14.979 39.293 14.979 39.3065H14.9722L10 84H85.7375C90.8514 84 95 79.8563 95 74.7407C95 69.6252 90.8548 65.4815 85.7375 65.4815V65.4848Z" fill="#F7F7F7"/>
<path d="M27.7006 67V46H32.4856L40.4656 59.245L38.4856 59.26L46.0756 46H50.8456V67H46.0156L46.1056 52.36L46.9906 52.675L40.9306 63.04H37.6156L31.3156 52.675L32.1706 52.36L32.2606 67H27.7006ZM60.5513 67V58.225L53.1863 46H58.7813L63.1463 53.455L67.4663 46H72.9113L65.5463 58.27V67H60.5513Z" fill="#D1D1D1"/>
</g>
<defs>
<clipPath id="clip0_2434_5113">
<rect width="100" height="100" rx="50" fill="white"/>
</clipPath>
</defs>
</svg>
