<svg width="18" height="18" viewBox="0 0 18 18" fill="none" xmlns="http://www.w3.org/2000/svg">
<path d="M8.2093 3.08105H2.99096C2.59553 3.08105 2.2163 3.23814 1.93669 3.51775C1.65708 3.79735 1.5 4.17658 1.5 4.57201V15.0087C1.5 15.4041 1.65708 15.7834 1.93669 16.063C2.2163 16.3426 2.59553 16.4997 2.99096 16.4997H13.4276C13.8231 16.4997 14.2023 16.3426 14.4819 16.063C14.7615 15.7834 14.9186 15.4041 14.9186 15.0087V9.79036" stroke="#31302A" stroke-width="1.5" stroke-linecap="round" stroke-linejoin="round"/>
<path d="M13.8004 1.96318C14.097 1.66661 14.4992 1.5 14.9186 1.5C15.338 1.5 15.7403 1.66661 16.0369 1.96318C16.3334 2.25975 16.5 2.66198 16.5 3.0814C16.5 3.50081 16.3334 3.90304 16.0369 4.19961L8.95481 11.2817L5.9729 12.0271L6.71838 9.04522L13.8004 1.96318Z" stroke="#31302A" stroke-width="1.5" stroke-linecap="round" stroke-linejoin="round"/>
</svg>
