<svg width="16" height="15" viewBox="0 0 16 15" fill="none" xmlns="http://www.w3.org/2000/svg">
<path d="M13.6 3.88867H2.4C1.6268 3.88867 1 4.53537 1 5.33312V12.5553C1 13.3531 1.6268 13.9998 2.4 13.9998H13.6C14.3732 13.9998 15 13.3531 15 12.5553V5.33312C15 4.53537 14.3732 3.88867 13.6 3.88867Z" stroke="#494949" stroke-width="1.5" stroke-linecap="round" stroke-linejoin="round"/>
<path d="M10.8 14V2.44444C10.8 2.06135 10.6525 1.69395 10.3899 1.42307C10.1273 1.15218 9.77125 1 9.39995 1H6.59995C6.22865 1 5.87255 1.15218 5.61 1.42307C5.34745 1.69395 5.19995 2.06135 5.19995 2.44444V14" stroke="#494949" stroke-width="1.5" stroke-linecap="round" stroke-linejoin="round"/>
</svg>
