<svg width="14" height="22" viewBox="0 0 14 22" fill="none" xmlns="http://www.w3.org/2000/svg">
<path d="M6.99965 1.22266C6.31767 1.22266 5.66361 1.48605 5.18138 1.95489C4.69914 2.42373 4.42822 3.05962 4.42822 3.72266V10.3893C4.42822 11.0524 4.69914 11.6882 5.18138 12.1571C5.66361 12.6259 6.31767 12.8893 6.99965 12.8893C7.68164 12.8893 8.33569 12.6259 8.81793 12.1571C9.30016 11.6882 9.57108 11.0524 9.57108 10.3893V3.72266C9.57108 3.05962 9.30016 2.42373 8.81793 1.95489C8.33569 1.48605 7.68164 1.22266 6.99965 1.22266Z" stroke="#494949" stroke-width="1.5" stroke-linecap="round" stroke-linejoin="round"/>
<path d="M13 8.72266V10.3893C13 11.9364 12.3679 13.4201 11.2426 14.5141C10.1174 15.6081 8.5913 16.2227 7 16.2227C5.4087 16.2227 3.88258 15.6081 2.75736 14.5141C1.63214 13.4201 1 11.9364 1 10.3893V8.72266" stroke="#494949" stroke-width="1.5" stroke-linecap="round" stroke-linejoin="round"/>
<path d="M6.99951 16.2227V19.556" stroke="#494949" stroke-width="1.5" stroke-linecap="round" stroke-linejoin="round"/>
</svg>
