<svg width="40" height="40" viewBox="0 0 40 40" fill="none" xmlns="http://www.w3.org/2000/svg">
<circle cx="20" cy="20" r="20" fill="#444444"/>
<path d="M30 18.6118V26.3895C30 27.6169 29.0051 28.6118 27.7778 28.6118H12.2222C10.9949 28.6118 10 27.6169 10 26.3895V16.3895C10 15.1622 10.9949 14.1673 12.2222 14.1673H13.8889C14.5883 14.1673 15.247 13.838 15.6667 13.2784L16.8333 11.7229C17.253 11.1633 17.9117 10.834 18.6111 10.834H21.3889" fill="#444444"/>
<path d="M30 18.6118V26.3895C30 27.6169 29.0051 28.6118 27.7778 28.6118H12.2222C10.9949 28.6118 10 27.6169 10 26.3895V16.3895C10 15.1622 10.9949 14.1673 12.2222 14.1673H13.8889C14.5883 14.1673 15.247 13.838 15.6667 13.2784L16.8333 11.7229C17.253 11.1633 17.9117 10.834 18.6111 10.834H21.3889" stroke="white" stroke-width="2" stroke-linecap="round" stroke-linejoin="round"/>
<path d="M27.2231 10.834V13.6118V10.834ZM27.2231 16.3895V13.6118V16.3895ZM27.2231 13.6118H24.4453H27.2231ZM27.2231 13.6118H30.0009H27.2231Z" fill="#444444"/>
<path d="M27.2231 10.834V13.6118M27.2231 13.6118V16.3895M27.2231 13.6118H24.4453M27.2231 13.6118H30.0009" stroke="white" stroke-width="2" stroke-linecap="round" stroke-linejoin="round"/>
<path d="M20.2781 24.1675C22.2725 24.1675 23.8892 22.5508 23.8892 20.5564C23.8892 18.5621 22.2725 16.9453 20.2781 16.9453C18.2837 16.9453 16.667 18.5621 16.667 20.5564C16.667 22.5508 18.2837 24.1675 20.2781 24.1675Z" fill="#444444" stroke="white" stroke-width="2" stroke-linecap="round" stroke-linejoin="round"/>
</svg>
