<svg width="34" height="34" viewBox="0 0 34 34" fill="none" xmlns="http://www.w3.org/2000/svg">
<circle cx="17" cy="17" r="17" fill="#EEEEEE"/>
<path d="M11.5143 25C10.8477 24.9993 10.2086 24.7341 9.73722 24.2628C9.26586 23.7914 9.00073 23.1523 9 22.4857V13.3429C9.00097 12.7159 9.23578 12.1119 9.6585 11.649C10.0812 11.186 10.6615 10.8974 11.2857 10.8395V9.68571C11.2857 9.50385 11.358 9.32944 11.4866 9.20084C11.6152 9.07224 11.7896 9 11.9714 9C12.1533 9 12.3277 9.07224 12.4563 9.20084C12.5849 9.32944 12.6571 9.50385 12.6571 9.68571V10.8286H21.3429V9.68571C21.3429 9.50385 21.4151 9.32944 21.5437 9.20084C21.6723 9.07224 21.8467 9 22.0286 9C22.2104 9 22.3848 9.07224 22.5134 9.20084C22.642 9.32944 22.7143 9.50385 22.7143 9.68571V10.8395C23.3386 10.8972 23.919 11.1857 24.3417 11.6487C24.7645 12.1117 24.9992 12.7159 25 13.3429V22.4857C24.9995 23.1524 24.7345 23.7916 24.263 24.263C23.7916 24.7345 23.1524 24.9995 22.4857 25H11.5143ZM10.3714 13.3429V22.4857C10.3717 22.7887 10.4922 23.0793 10.7064 23.2936C10.9207 23.5078 11.2113 23.6283 11.5143 23.6286H22.4857C22.7887 23.6283 23.0793 23.5078 23.2936 23.2936C23.5078 23.0793 23.6283 22.7887 23.6286 22.4857V13.3429C23.6283 13.0398 23.5078 12.7493 23.2936 12.535C23.0793 12.3207 22.7887 12.2002 22.4857 12.2H11.5143C11.2113 12.2002 10.9207 12.3207 10.7064 12.535C10.4922 12.7493 10.3717 13.0398 10.3714 13.3429ZM16.3143 20.6571V18.6H14.2571C14.0753 18.6 13.9009 18.5278 13.7723 18.3992C13.6437 18.2706 13.5714 18.0961 13.5714 17.9143C13.5714 17.7324 13.6437 17.558 13.7723 17.4294C13.9009 17.3008 14.0753 17.2286 14.2571 17.2286H16.3143V15.1714C16.3143 14.9896 16.3865 14.8152 16.5151 14.6866C16.6437 14.558 16.8181 14.4857 17 14.4857C17.1819 14.4857 17.3563 14.558 17.4849 14.6866C17.6135 14.8152 17.6857 14.9896 17.6857 15.1714V17.2286H19.7429C19.9247 17.2286 20.0991 17.3008 20.2277 17.4294C20.3563 17.558 20.4286 17.7324 20.4286 17.9143C20.4286 18.0961 20.3563 18.2706 20.2277 18.3992C20.0991 18.5278 19.9247 18.6 19.7429 18.6H17.6857V20.6571C17.6857 20.839 17.6135 21.0134 17.4849 21.142C17.3563 21.2706 17.1819 21.3429 17 21.3429C16.8181 21.3429 16.6437 21.2706 16.5151 21.142C16.3865 21.0134 16.3143 20.839 16.3143 20.6571Z" fill="#141124"/>
</svg>
