<svg width="16" height="19" viewBox="0 0 16 19" fill="none" xmlns="http://www.w3.org/2000/svg">
<path d="M15 7.94434C15 13.3888 8 18.0554 8 18.0554C8 18.0554 1 13.3888 1 7.94434C1 6.08782 1.7375 4.30734 3.05025 2.99459C4.36301 1.68183 6.14348 0.944336 8 0.944336C9.85652 0.944336 11.637 1.68183 12.9497 2.99459C14.2625 4.30734 15 6.08782 15 7.94434Z" stroke="#B1B1B1" stroke-width="1.5" stroke-linecap="round" stroke-linejoin="round"/>
<path d="M8.00008 10.278C9.28875 10.278 10.3334 9.23333 10.3334 7.94466C10.3334 6.656 9.28875 5.61133 8.00008 5.61133C6.71142 5.61133 5.66675 6.656 5.66675 7.94466C5.66675 9.23333 6.71142 10.278 8.00008 10.278Z" stroke="#B1B1B1" stroke-width="1.5" stroke-linecap="round" stroke-linejoin="round"/>
</svg>
