<svg width="14" height="15" viewBox="0 0 14 15" fill="none" xmlns="http://www.w3.org/2000/svg">
<path d="M7 1.9C5.51479 1.9 4.09041 2.49 3.0402 3.5402C1.99 4.59041 1.4 6.01479 1.4 7.5C1.4 8.98521 1.99 10.4096 3.0402 11.4598C4.09041 12.51 5.51479 13.1 7 13.1C8.48521 13.1 9.90959 12.51 10.9598 11.4598C12.01 10.4096 12.6 8.98521 12.6 7.5C12.6 6.01479 12.01 4.59041 10.9598 3.5402C9.90959 2.49 8.48521 1.9 7 1.9ZM0 7.5C0 3.6339 3.1339 0.5 7 0.5C10.8661 0.5 14 3.6339 14 7.5C14 11.3661 10.8661 14.5 7 14.5C3.1339 14.5 0 11.3661 0 7.5ZM7 3.3C7.18565 3.3 7.3637 3.37375 7.49497 3.50503C7.62625 3.6363 7.7 3.81435 7.7 4V7.2102L9.5949 9.1051C9.72241 9.23712 9.79297 9.41394 9.79137 9.59748C9.78978 9.78102 9.71616 9.95659 9.58637 10.0864C9.45659 10.2162 9.28102 10.2898 9.09748 10.2914C8.91394 10.293 8.73712 10.2224 8.6051 10.0949L6.5051 7.9949C6.37382 7.86365 6.30004 7.68564 6.3 7.5V4C6.3 3.81435 6.37375 3.6363 6.50503 3.50503C6.6363 3.37375 6.81435 3.3 7 3.3Z" fill="#0D0D0D"/>
</svg>
