<svg width="22" height="23" viewBox="0 0 22 23" fill="none" xmlns="http://www.w3.org/2000/svg">
<rect width="22" height="22" transform="translate(0 0.5)" fill="white"/>
<path d="M14.3335 3.5V5.78567" stroke="#31302A" stroke-width="2" stroke-linecap="round" stroke-linejoin="round"/>
<path d="M14.3335 10.3564V12.6421" stroke="#31302A" stroke-width="2" stroke-linecap="round" stroke-linejoin="round"/>
<path d="M14.3335 17.2139V19.4995" stroke="#31302A" stroke-width="2" stroke-linecap="round" stroke-linejoin="round"/>
<path d="M3.22222 3.5H18.7778C19.3671 3.5 19.9324 3.74081 20.3491 4.16946C20.7659 4.5981 21 5.17947 21 5.78567V9.21418C20.4106 9.21418 19.8454 9.45499 19.4287 9.88364C19.0119 10.3123 18.7778 10.8937 18.7778 11.4998C18.7778 12.106 19.0119 12.6874 19.4287 13.1161C19.8454 13.5447 20.4106 13.7855 21 13.7855V17.214C21 17.8202 20.7659 18.4016 20.3491 18.8302C19.9324 19.2589 19.3671 19.4997 18.7778 19.4997H3.22222C2.63285 19.4997 2.06762 19.2589 1.65087 18.8302C1.23413 18.4016 1 17.8202 1 17.214V13.7855C1.58937 13.7855 2.1546 13.5447 2.57135 13.1161C2.9881 12.6874 3.22222 12.106 3.22222 11.4998C3.22222 10.8937 2.9881 10.3123 2.57135 9.88364C2.1546 9.45499 1.58937 9.21418 1 9.21418V5.78567C1 5.17947 1.23413 4.5981 1.65087 4.16946C2.06762 3.74081 2.63285 3.5 3.22222 3.5Z" stroke="#31302A" stroke-width="2" stroke-linecap="round" stroke-linejoin="round"/>
</svg>
